<?xml version="1.0" encoding="utf-8"?>
<!-- Generator: Adobe Illustrator 26.3.1, SVG Export Plug-In . SVG Version: 6.00 Build 0)  -->
<svg version="1.1" id="Layer_1" xmlns="http://www.w3.org/2000/svg" xmlns:xlink="http://www.w3.org/1999/xlink" x="0px" y="0px"
	 viewBox="0 0 64 64" style="enable-background:new 0 0 64 64;" xml:space="preserve">
<style type="text/css">
	.st0{fill:#DEFBFD;}
	.st1{fill:#6734B3;}
	.st2{opacity:0.5;fill:#6734B3;}
	.st3{fill:#15A0A3;}
	.st4{opacity:0.25;fill:#94A2E5;}
</style>
<g>
	<path class="st0" d="M60,32.8236465c0,15.4559402-12.5439453,28-28,28c-4.0880051,0-7.9707031-0.8773956-11.4613609-2.464016
		C10.7946939,53.991581,4,44.1915817,4,32.8236465c0-10.7333355,6.0479822-20.0479832,14.9146481-24.7520199
		C22.8160324,5.9996538,27.2772789,4.8236446,32,4.8236446C47.4560547,4.8236446,60,17.36759,60,32.8236465z"/>
	<g>
		<path class="st1" d="M56.7930946,34.6338844v5.2576675H10.5422421c-0.3559065,0-0.7118139,0.0304756-1.0474243,0.1220284
			c-0.2034016,0.040657-0.3966246,0.0914917-0.5898476,0.1525078c-1.0372448,0.3356094-1.9321642,0.9762917-2.5728464,1.8304939
			c-0.3559694,0.4678192-0.6305032,1.0068321-0.8034291,1.5864983c-0.0610147,0.172863-0.1016698,0.345726-0.1423254,0.5185928
			H5.284637v-5.2576065c0-1.8101349,1.1287975-3.3457375,2.7355933-3.935585
			c0.4576397-0.1830444,0.9559345-0.2745972,1.4745874-0.2745972H56.7930946z"/>
		<rect x="51.9813042" y="34.6336517" class="st0" width="2.1052616" height="3.1578922"/>
		<path class="st2" d="M42.1083603,34.6338844l-0.8034325,4.7898483c-0.0304756,0.1626854-0.0610123,0.3152542-0.0914879,0.4678192
			H10.5422421c-0.3559065,0-0.7118139,0.0304756-1.0474243,0.1220284c-0.2034016,0.040657-0.3966246,0.0914917-0.5898476,0.1525078
			c-0.1525049-1.4440498-0.386445-3.0508461-0.7728901-4.7796707c-0.0304766-0.152504-0.0711937-0.3152504-0.1118498-0.4779358
			c0.4576397-0.1830444,0.9559345-0.2745972,1.4745874-0.2745972H42.1083603z"/>
		<path class="st3" d="M54.4373131,32.1830673l-3.1728745,0.7931862l-0.132206,0.793251l-0.1423874,0.8643799l-0.752533,4.4542389
			c-0.0508347,0.2847748-0.1220284,0.5491943-0.2236977,0.8034286c-0.2745972,0.7118149-0.7424164,1.3220215-1.3322029,1.7694817
			c-0.6915169,0.5287704-1.5457802,0.8339043-2.4711761,0.8339043h-6.0712128v4.7694893H29.2068272v-4.7694893h6.0712147
			c0.2745323,0,0.5389481-0.0305367,0.7931862-0.0813713c0.0915527-0.0101814,0.172863-0.0305405,0.2542381-0.0610161
			c0.2440567-0.0610161,0.4779968-0.1423874,0.7016983-0.2542381c0.2135811-0.1017303,0.4169807-0.2237587,0.6101418-0.3559685
			c0.5491943-0.3863831,0.9966507-0.9050369,1.2915459-1.5152435c0.0508347-0.1118469,0.1017303-0.2236977,0.1423874-0.3355484
			c0.1118469-0.2542343,0.1830444-0.5288315,0.2338791-0.8034286l0.7424126-4.4542389l0.2745361-1.6576309h0.0101776
			l3.162693-0.7931862l-3.9762383-9.5389805v-6.3559265c0,0,0-0.8440847-0.2338791-2.1254501
			c-0.020359-0.1118488-0.0407181-0.2338781-0.0711937-0.3559065c-0.0508957-0.2440577-0.1119118-0.5084743-0.1830444-0.772891
			c-0.0305367-0.1322079-0.0711937-0.2745962-0.1119118-0.4169216c-0.0406532-0.1423874-0.0914879-0.2847748-0.132206-0.4271631
			c-0.0711327-0.2236986-0.1525078-0.4474592-0.2338791-0.6813374c-0.2542381-0.6915178-0.57967-1.4135733-0.986412-2.1457462
			c-0.1017303-0.193223-0.2237587-0.386445-0.345787-0.579668c-0.2440605-0.3966246-0.5084763-0.7830706-0.8033676-1.1593361
			c-0.1525688-0.1932225-0.3051338-0.376266-0.4678192-0.5694885c-0.1626854-0.1830435-0.3356094-0.3660865-0.5186539-0.54913
			c-0.8237267-0.8542638-1.8101349-1.6372719-2.98983-2.2983131c-0.3152504-0.183043-0.6508617-0.355907-0.9965897-0.5186534
			c-0.1830425-0.0813732-0.3559074-0.1626844-0.5390129-0.2338784c-0.3660851-0.1627464-0.7423515-0.3152514-1.1389771-0.4372802
			c-0.172863-0.0508351-0.3457279-0.1118495-0.5186539-0.1627467c-0.2338772-0.081311-0.4575768-0.1423254-0.7016335-0.2033398
			c0.3253689-0.0915527,0.6507988-0.1729259,0.9965897-0.2441199c1.3016605-0.2643545,2.7152328-0.4067421,4.2508354-0.4067421
			c16.6677971,0,16.6677971,14.2881126,16.6677971,14.2881126v6.3559265L54.4373131,32.1830673z"/>
		<path class="st4" d="M45.655365,32.1785049l-3.1718674,0.7929649l-1.0208321,6.115921
			c-0.3372345,1.9687309-2.0325966,3.4088554-4.028698,3.4088554h-6.070303v4.766922H20.4261341v-4.766922h6.0703049
			c1.9961014,0,3.6914616-1.4401245,4.0286961-3.4088554l1.0208321-6.115921l3.1718674-0.7929649l-3.9739571-9.5338459v-6.352911
			c0,0,0-10.8372831-11.0104618-13.6445427c1.5768089-0.419292,3.3359222-0.6471572,5.277338-0.6471572
			c16.6706543,0,16.6706543,14.2917004,16.6706543,14.2917004v6.352911L45.655365,32.1785049z"/>
		<path class="st1" d="M43.492466,32.1754456l-1.0808792-2.5940742l-2.8874779-6.9392567v-6.3474236
			c0,0-0.0042229-3.56565-2.080883-7.1374454c-0.0049057-0.008379-0.0099335-0.0167589-0.0148354-0.0251379
			c-0.1241379-0.2125883-0.2561607-0.4247427-0.3955078-0.6365242c-0.0072632-0.0109863-0.0145226-0.0219727-0.0217857-0.033021
			c-0.144001-0.2174921-0.2960739-0.4338045-0.4570198-0.6488132c0-0.0000625,0,0,0,0
			c-1.6265335-2.1720638-4.1405373-4.176105-8.0405579-5.1716394c-0.4462185-0.1093667-0.9154644-0.2040229-1.3997307-0.2880652
			c-0.0281181-0.0049655-0.0587807-0.0079448-0.0869598-0.0128484c-0.390543-0.0662282-0.7887192-0.1269324-1.2039642-0.1746638
			c-0.312582-0.0363107-0.641552-0.0594006-0.9685345-0.0840423C24.698288,2.0707593,24.550375,2.052635,24.3911057,2.0435729
			c-0.4826546-0.0272486-0.9811974-0.0412762-1.4950714-0.0422075c-0.0157032,0-0.0299797-0.0013034-0.0456829-0.0013034
			c-0.000248,0-0.0005589,0-0.0008068,0C22.8483658,2.000062,22.8473091,2,22.8461304,2
			c-0.5730877,0-1.1263142,0.0240829-1.6670647,0.0628765c-0.1714993,0.0122898-0.3350525,0.0335796-0.5033855,0.0496557
			c-0.3644714,0.034759-0.7248478,0.0738628-1.0744247,0.1256289c-0.1890011,0.0279934-0.3727894,0.061573-0.5574455,0.0943458
			c-0.3191013,0.0566695-0.6328621,0.1189873-0.9392376,0.1894984c-0.1790714,0.0412142-0.3565273,0.0837939-0.5312538,0.1296012
			C17.2638397,2.7326696,16.962801,2.82236,16.666605,2.9172645c-0.1498985,0.048104-0.3021545,0.093601-0.4487,0.1451187
			c-0.357646,0.125567-0.7034359,0.2626166-1.0412807,0.4075491c-0.0697041,0.0299795-0.1433802,0.0558627-0.2121534,0.0866492
			c-0.8509121,0.3793073-1.6351614,0.8208704-2.3617487,1.3098545c-0.0259447,0.0175037-0.0504627,0.0360627-0.0762215,0.0536904
			c-0.3467827,0.236485-0.678793,0.4844532-0.9980173,0.7424765c-0.0047789,0.0038486-0.0101786,0.0072622-0.0149584,0.0111108
			c-0.0038481,0.0031652-0.0069513,0.0068274-0.0108004,0.0099931c-6.5073147,5.282371-7.338799,14.7890759-5.3325233,18.5508041
			c1.7064176,3.199564,2.8360224,6.3392925,3.5812302,9.224165c0.1148281,0.4466515,0.226368,0.8911934,0.3217068,1.3225136
			c0.0663519,0.29533,0.1278629,0.5864983,0.1863947,0.8751831c0.0139656,0.0684013,0.028676,0.1374207,0.0422697,0.205452
			c1.3131437,6.6345558,0.6329231,11.4013138,0.6329231,11.4013138h0.0104284h18.2525578h0.0011177v-4.7645226h6.0748138
			c1.7458954,0,3.2658539-1.1030388,3.8403702-2.7004013c0.0829239-0.2285385,0.1467323-0.4671364,0.189003-0.7140465
			l1.0209808-6.1157799l3.1684685-0.7894669l-0.0013046-0.0031624L43.492466,32.1754456z"/>
		<path class="st0" d="M37.6144562,34.2019768l-5.4961052-1.029953c1.6275177,1.8945961,3.2907066,3.6639023,5.496109,3.5273552
			L37.6144562,34.2019768z"/>
		<path class="st0" d="M48.9894829,34.2019768l-5.4961052-1.029953c1.6275177,1.8945961,3.2907104,3.6639023,5.496109,3.5273552
			L48.9894829,34.2019768z"/>
		<path class="st3" d="M52.6503525,51.4736938c0,0.3578568-0.0316086,0.7157784-0.1052361,1.0526314
			c-0.1579208,0.7789345-0.4842339,1.4947166-0.9473915,2.1052589c-0.9578667-1.2737045-2.4947319-2.1052589-4.2105255-2.1052589
			H9.4924936c-2.3263369,0-4.2105227-1.8842506-4.2105227-4.2105255v-6.3157845
			c0,2.9052734,2.3578825,5.2631531,5.2631531,5.2631531h37.8947067
			C50.7661667,47.2631683,52.6503525,49.1473541,52.6503525,51.4736938z"/>
		<path class="st1" d="M52.6503525,52.5263252v5.2631531C52.6503525,60.1157494,50.7661667,62,48.4398308,62H15.8082781v-5.2631531
			h31.5789223c0.3579216,0,0.7157822-0.0316086,1.0526314-0.1157761c1.2841797-0.2526855,2.4000282-0.9790001,3.1578941-1.9894867
			c0.4631577-0.6105423,0.7894707-1.3263245,0.9473915-2.1052589H52.6503525z"/>
		<rect x="46.334568" y="47.2631683" class="st0" width="2.1052616" height="3.1578922"/>
		<rect x="41.0714149" y="47.2631683" class="st0" width="2.1052616" height="3.1578922"/>
		<rect x="35.8082619" y="47.2631683" class="st0" width="2.1052616" height="3.1578922"/>
		<rect x="30.5451088" y="47.2631683" class="st0" width="2.1052616" height="3.1578922"/>
		<rect x="25.2819538" y="47.2631683" class="st0" width="2.1052616" height="3.1578922"/>
		<rect x="20.0188007" y="47.2631683" class="st0" width="2.1052616" height="3.1578922"/>
		<rect x="14.7556477" y="47.2631683" class="st0" width="2.1052616" height="3.1578922"/>
		<path class="st0" d="M48.4398308,56.6210709v3.2736664H46.334568v-3.1578903h1.0526314
			C47.745121,56.7368469,48.1029816,56.7052383,48.4398308,56.6210709z"/>
		<rect x="41.0714149" y="56.7368469" class="st0" width="2.1052616" height="3.1578922"/>
		<rect x="35.8082619" y="56.7368469" class="st0" width="2.1052616" height="3.1578922"/>
		<rect x="30.5451088" y="56.7368469" class="st0" width="2.1052616" height="3.1578922"/>
		<rect x="25.2819538" y="56.7368469" class="st0" width="2.1052616" height="3.1578922"/>
		<rect x="20.0188007" y="56.7368469" class="st0" width="2.1052616" height="3.1578922"/>
		<rect x="54.871048" y="34.6315994" class="st1" width="1.9184642" height="5.2631536"/>
		<rect x="15.8082781" y="56.7368469" class="st3" width="2.1052616" height="5.2631536"/>
		<rect x="54.871048" y="34.6338844" class="st3" width="1.9220473" height="5.2576675"/>
		<path class="st2" d="M51.9763145,34.6338844l-1.3118401,5.2576675h-0.6508598
			c0.1016693-0.2542343,0.172863-0.5186539,0.2236977-0.8034286l0.752533-4.4542389H51.9763145z"/>
	</g>
</g>
</svg>
